<svg width="24" height="25" viewBox="0 0 24 25" fill="none" xmlns="http://www.w3.org/2000/svg">
<path d="M12.6 4.42266C12.2444 4.15599 11.7556 4.15599 11.4 4.42266L4.4 9.67266C4.14819 9.86151 4 10.1579 4 10.4727V20.9727C4 21.5249 4.44772 21.9727 5 21.9727H8C8.55228 21.9727 9 21.5249 9 20.9727V15.9727C9 15.4204 9.44772 14.9727 10 14.9727H14C14.5523 14.9727 15 15.4204 15 15.9727V20.9727C15 21.5249 15.4477 21.9727 16 21.9727H19C19.5523 21.9727 20 21.5249 20 20.9727V10.4727C20 10.1579 19.8518 9.86151 19.6 9.67266L12.6 4.42266Z" stroke="white" stroke-width="1.5" stroke-linejoin="round"/>
</svg>
